<svg xmlns="http://www.w3.org/2000/svg" width="216" height="72" viewBox="0 0 216 72"><path fill="#0d0d3f" d="M18.41 0L27.98 24.41L37.55 0L54.00 0L37.30 35.25L54.39 71.09L37.74 71.09L27.98 46.24L18.26 71.09L1.61 71.09L18.70 35.25L1.95 0L18.41 0ZM111.38 0L111.38 71.09L97.02 71.09L76.03 24.46L76.03 71.09L61.67 71.09L61.67 0L76.03 0L97.07 46.68L97.07 0L111.38 0ZM166.55 8.45L137.79 59.18L167.09 59.18L167.09 71.09L121.00 71.09L121.00 62.45L150 11.96L120.70 11.96L120.70 0L166.55 0L166.55 8.45ZM212.60 30.18L212.60 42.09L190.28 42.09L190.28 71.09L175.93 71.09L175.93 0L215.28 0L215.28 11.96L190.28 11.96L190.28 30.18L212.60 30.18Z"></path></svg>